<svg fill="none" width="26" height="30" xmlns="http://www.w3.org/2000/svg" viewBox="0 0 242.89 246"><path d="M246.44,125.53c-.71,20.85-1.41,42.2-2.2,63.54a8.13,8.13,0,0,1-1.23,3.56q-9.15,15.75-18.43,31.42a6.47,6.47,0,0,1-2.28,2.23q-15.25,8.62-30.58,17.11a6.26,6.26,0,0,1-2.58.8c-10.55.6-21.1,1.09-31.65,1.72s-21.07,1.5-31.62,2.06a87.4,87.4,0,0,1-10.18-.44c-13.57-.87-27.13-1.77-40.69-2.64-4-.26-8.09-.3-12.11-.72a17.86,17.86,0,0,1-6.46-1.7c-9.72-5.22-19.33-10.65-28.94-16.07A7,7,0,0,1,25,224c-6-10.12-12-20.24-17.83-30.49a15.71,15.71,0,0,1-1.92-7C4.55,166,4,145.52,3.58,125c-.14-7.54.37-15.09.56-22.63.35-13.53.64-27.06,1.07-40.58A9.77,9.77,0,0,1,6.6,57.43Q15.72,41.66,25,26a6,6,0,0,1,2.1-2Q42.72,15.1,58.36,6.34a4.31,4.31,0,0,1,1.8-.55C70.43,5.21,80.71,4.71,91,4.09c10.82-.65,21.63-1.43,32.45-2.08a40.09,40.09,0,0,1,4.66.31c7.25.42,14.5.81,21.74,1.24,11.46.68,22.91,1.7,34.38,1.93,5,.1,8.93,2,13,4.3,8.3,4.75,16.69,9.35,25,14.07A6.51,6.51,0,0,1,224.54,26Q233.85,41.7,243,57.45a9.24,9.24,0,0,1,1.26,4.11C245,82.71,245.72,103.87,246.44,125.53Zm-185.26-.94c.14,1.54.2,2.56.34,3.56,2.3,16,4.75,32,6.79,48,.41,3.21,1.79,3.82,4.41,4.16,11.39,1.51,22.74,3.29,34.14,4.68,8.7,1.06,17.25,3.05,26.25,1.48,13.75-2.4,27.65-4,41.5-5.8,2-.26,2.66-1.07,3-3.09,2.2-13.88,4.63-27.73,6.89-41.61.68-4.15,2-8.48,1.42-12.49-2.48-17.18-5.57-34.28-8.37-51.42-.26-1.61-.76-2.32-2.51-2.56-12.75-1.7-25.48-3.61-38.24-5.29-4.9-.64-10-1.65-14.77-1.09-17,2-33.87,4.6-50.82,6.85-2,.27-2.47,1.18-2.72,3-1.52,11.11-3.16,22.2-4.74,33.3C62.85,112.55,62,118.83,61.18,124.59Zm155.63,54.34a13.4,13.4,0,0,0,.87-1.31c7.79-16.84,15.61-33.67,23.3-50.56a5.25,5.25,0,0,0-.19-3.83c-5-11.16-10.06-22.27-15.11-33.39L217,70.78c-.6,1-1,1.54-1.35,2.18-8.33,16.69-16.68,33.37-24.88,50.12a5.57,5.57,0,0,0,.23,4.28c8,16.32,16.21,32.58,24.35,48.85C215.75,177,216.2,177.8,216.81,178.94ZM31.94,70.64c-.66,1.3-1.06,2-1.41,2.76-7.3,15.85-14.56,31.73-22,47.55a6.41,6.41,0,0,0-.08,5.94c7.38,16.32,14.65,32.7,22,49.05.38.86.83,1.69,1.41,2.84.48-.78.75-1.14.94-1.54,8.07-16.92,16.16-33.83,24.12-50.79a4.75,4.75,0,0,0-.28-3.52c-6.45-13.82-13-27.6-19.51-41.39C35.5,78.07,33.83,74.61,31.94,70.64Zm40.92-38c1.4.76,2.18,1.21,3,1.6,15.48,7.65,31,15.27,46.44,23a5.07,5.07,0,0,0,5.11,0c15.45-7.72,31-15.33,46.44-23,.85-.42,1.65-.93,2.75-1.56-.79-.51-1.14-.78-1.54-1-16.18-8.31-32.35-16.65-48.59-24.85a4.78,4.78,0,0,0-3.72.24C110.43,13.36,98.18,19.69,85.92,26ZM176.66,217.53c-.95-.6-1.45-1-2-1.26-16.05-7.94-32.1-15.9-48.2-23.74a4.55,4.55,0,0,0-3.5.12q-23.9,11.66-47.7,23.5c-.67.33-1.29.79-2.07,1.27a11.11,11.11,0,0,0,1,.67c16.33,8.21,32.65,16.45,49,24.56a4.94,4.94,0,0,0,3.77-.17c5.81-2.76,11.51-5.72,17.25-8.62Zm43.76-189a3.86,3.86,0,0,0-.93-.23c-12.25,2-24.49,3.94-36.74,5.87-1.85.29-2.34,1.29-2.33,3,.06,9.2,0,18.41,0,27.61a14.22,14.22,0,0,0,.2,1.64,7.55,7.55,0,0,0,1.2.15c10.66-.52,21.32-1.07,32-1.55,1.61-.07,2.21-.66,2.36-2.28.35-3.75.91-7.48,1.38-11.22C218.52,43.91,219.46,36.27,220.42,28.51ZM220.13,222a7.93,7.93,0,0,0,.15-1.29c-1.37-11.21-2.78-22.41-4.12-33.62-.18-1.54-1-1.91-2.37-2-5.51-.24-11-.6-16.51-.88s-11-.5-16.82-.77c0,1.41,0,2.48,0,3.55,0,8.36.16,16.73-.09,25.09-.09,3,1.21,3.75,3.71,4.12,6.53,1,13,2.12,19.56,3.17C209.05,220.25,214.48,221.08,220.13,222ZM29.54,28.16a7.39,7.39,0,0,0-.22,1.7C30.74,41,32.15,52.1,33.7,63.19a2.83,2.83,0,0,0,2.05,1.74c6.33.46,12.67.72,19,1.05l10.46.57c.27-.56.42-.72.42-.88,0-10,.1-20,0-30.07a2.69,2.69,0,0,0-1.73-1.83c-2.68-.63-5.42-1-8.14-1.42Zm36,155.66a6.73,6.73,0,0,0-1.23-.19c-9.55.49-19.1,1-28.64,1.58a2.82,2.82,0,0,0-1.92,1.87c-1.17,8-2.2,16-3.24,24-.45,3.51-.84,7-1.27,10.68a11.56,11.56,0,0,0,1.44,0c11.06-1.78,22.11-3.59,33.18-5.31,1.72-.27,2-1.19,2-2.64,0-9.29,0-18.58,0-27.86A18.23,18.23,0,0,0,65.49,183.82Zm158.42-152a10.78,10.78,0,0,0-.61,1.62c-1.15,9.21-2.25,18.43-3.45,27.63-.44,3.39-.61,6.52,1,9.88,6.88,14.63,13.45,29.4,20.14,44.12.35.77.81,1.49,1.61,2.93,0-2.41,0-4,0-5.5-.5-14.9-1.19-29.79-1.41-44.69a24.22,24.22,0,0,0-3.72-13.2C232.82,47.34,228.61,39.81,223.91,31.82Zm18,101.89c-.26.53-.69,1.32-1.07,2.14-6.83,14.76-13.72,29.49-20.42,44.3a12.41,12.41,0,0,0-.9,6.07c.69,7,1.69,14,2.59,21.07.45,3.47.94,6.93,1.48,11a17,17,0,0,0,1.15-1.4c5.07-8.64,10.18-17.26,15.15-26a10.1,10.1,0,0,0,1.06-4.46c.39-9.47.76-18.94.93-28.41C242,149.86,241.93,141.69,241.93,133.71ZM25.81,218.54c.24-1.06.34-1.41.39-1.76,1.28-9.94,2.6-19.87,3.79-29.81a9,9,0,0,0-.5-4.51C22.72,167.07,15.84,151.72,9,136.37c-.35-.79-.8-1.53-1.42-2.7A9.34,9.34,0,0,0,7.33,135c.4,16.29.9,32.57,1.16,48.86a21,21,0,0,0,3.35,11.09C16.52,202.47,20.92,210.22,25.81,218.54Zm7,6.48a13.61,13.61,0,0,0,1.38,1.1C42.1,230.55,50,235,58,239.35a10.52,10.52,0,0,0,4.2,1.12c4.58.31,9.17.41,13.76.64,3.67.19,7.33.45,11,.68l28.89,1.82a4,4,0,0,0-1.73-1.53c-12.56-6.31-25.25-12.37-37.62-19-5.39-2.91-10.55-4.35-16.46-2.54a20.46,20.46,0,0,1-2.71.5Zm184.18.27c-1-.3-1.37-.43-1.72-.48-10.88-1.8-21.75-3.63-32.64-5.34a5.61,5.61,0,0,0-3.15.61q-21.71,10.85-43.35,21.81a14.2,14.2,0,0,0-1.56,1.06c6.91.18,13.58-.33,20.27-.71,10.82-.61,21.65-1.13,32.47-1.73a8.43,8.43,0,0,0,3.47-.73C199.3,235.12,207.79,230.37,217,225.29ZM114.57,7.33l-.14-.77c-5.56.25-11.13.44-16.69.76C86.19,8,74.65,8.67,63.11,9.48A13.88,13.88,0,0,0,57.65,11c-7.53,4-15,8.27-22.41,12.45-.68.38-1.3.86-2.15,1.42a6.91,6.91,0,0,0,1.29.57C45.17,27.14,56,28.92,66.76,30.52a7.65,7.65,0,0,0,4.18-.87c5.85-2.87,11.63-5.91,17.43-8.88Zm20.74-.78-.13.62a6.19,6.19,0,0,0,.82.61c14.39,7.38,28.77,14.79,43.22,22.06a8.56,8.56,0,0,0,4.76.56c6.64-.93,13.25-2.07,19.87-3.15,4.14-.67,8.28-1.37,12.92-2.14a16,16,0,0,0-1.48-1.16c-7.94-4.45-15.87-8.92-23.83-13.32a8.55,8.55,0,0,0-3.36-1.1c-4.21-.32-8.44-.42-12.66-.67-7.7-.47-15.39-1-23.09-1.47C146.67,7.05,141,6.83,135.31,6.55ZM7.92,113.79a7.85,7.85,0,0,0,.57-.89Q19.05,90,29.56,67.07A6.89,6.89,0,0,0,30,63.62c-.71-6.48-1.52-13-2.34-19.43-.51-4-1.1-8-1.66-12C20,41.38,14.62,50.54,9.3,59.77A7.08,7.08,0,0,0,8.73,63C8.43,72.15,8.1,81.35,8,90.55,7.82,98.25,7.92,106,7.92,113.79Zm206.2,67.82-24.7-49.4-.78.11-7.91,47.63Zm-25.48-63.94.77.13L214,68.53l-33.22,1.73ZM69.36,183.4v31.77l49.23-24.34-.23-.67ZM118.34,60l.16-.74L69.31,35v31.8Zm-52.9,120.1-6.78-47.49-.68-.1L34.63,181.65Zm0-110.06L34.83,68.5,58,117.45l.66-.13ZM176.84,36.71,131.14,59.29l.07.7,45.63,6.29ZM131.31,190.16l-.15.72,45.62,22.54V183.88Z" fill="rgb(117, 117, 117)" stroke="rgb(117, 117, 117)" stroke-width="0.6" stroke-linecap="round" stroke-linejoin="round" transform="translate(-3.56 -2)"></path></svg>